<mxfile host="app.diagrams.net" modified="2023-05-10T11:33:54.016Z" agent="Mozilla/5.0 (Windows NT 10.0; Win64; x64) AppleWebKit/537.36 (KHTML, like Gecko) Chrome/110.0.0.0 YaBrowser/23.3.3.721 Yowser/2.5 Safari/537.36" etag="dpO2db4F2-Ss_nHzd5Yi" version="21.2.9" type="github">
  <diagram name="Page-1" id="b520641d-4fe3-3701-9064-5fc419738815">
    <mxGraphModel dx="2279" dy="679" grid="1" gridSize="10" guides="1" tooltips="1" connect="1" arrows="1" fold="1" page="1" pageScale="1" pageWidth="1100" pageHeight="850" background="none" math="0" shadow="0">
      <root>
        <mxCell id="0" />
        <mxCell id="1" parent="0" />
        <mxCell id="21ea969265ad0168-10" value="3" style="swimlane;html=1;fontStyle=0;childLayout=stackLayout;horizontal=1;startSize=26;fillColor=#e0e0e0;horizontalStack=0;resizeParent=1;resizeLast=0;collapsible=1;marginBottom=0;swimlaneFillColor=#ffffff;align=center;rounded=1;shadow=0;comic=0;labelBackgroundColor=none;strokeWidth=1;fontFamily=Verdana;fontSize=12" parent="1" vertex="1">
          <mxGeometry x="480" y="300" width="160" height="130" as="geometry" />
        </mxCell>
        <mxCell id="lxfn-lX1NWJobP7DNgSF-29" value="&lt;font style=&quot;font-size: 16px;&quot;&gt;Компания&lt;/font&gt;" style="text;html=1;strokeColor=none;fillColor=none;align=center;verticalAlign=middle;whiteSpace=wrap;rounded=0;" vertex="1" parent="21ea969265ad0168-10">
          <mxGeometry y="26" width="160" height="104" as="geometry" />
        </mxCell>
        <mxCell id="21ea969265ad0168-14" value="1" style="swimlane;html=1;fontStyle=0;childLayout=stackLayout;horizontal=1;startSize=26;fillColor=#e0e0e0;horizontalStack=0;resizeParent=1;resizeLast=0;collapsible=1;marginBottom=0;swimlaneFillColor=#ffffff;align=center;rounded=1;shadow=0;comic=0;labelBackgroundColor=none;strokeWidth=1;fontFamily=Verdana;fontSize=12" parent="1" vertex="1">
          <mxGeometry x="170" y="310" width="160" height="110" as="geometry" />
        </mxCell>
        <mxCell id="lxfn-lX1NWJobP7DNgSF-10" value="&lt;p style=&quot;line-height: 121%;&quot;&gt;&lt;font style=&quot;font-size: 17px;&quot;&gt;Оформление заявки&lt;/font&gt;&lt;/p&gt;" style="text;html=1;strokeColor=none;fillColor=none;align=center;verticalAlign=middle;whiteSpace=wrap;rounded=0;strokeWidth=1;" vertex="1" parent="21ea969265ad0168-14">
          <mxGeometry y="26" width="160" height="84" as="geometry" />
        </mxCell>
        <mxCell id="21ea969265ad0168-26" value="2" style="swimlane;html=1;fontStyle=0;childLayout=stackLayout;horizontal=1;startSize=26;fillColor=#e0e0e0;horizontalStack=0;resizeParent=1;resizeLast=0;collapsible=1;marginBottom=0;swimlaneFillColor=#ffffff;align=center;rounded=1;shadow=0;comic=0;labelBackgroundColor=none;strokeWidth=1;fontFamily=Verdana;fontSize=12" parent="1" vertex="1">
          <mxGeometry x="-125" y="565" width="150" height="120" as="geometry" />
        </mxCell>
        <mxCell id="lxfn-lX1NWJobP7DNgSF-27" value="Отмена заявки" style="text;html=1;strokeColor=none;fillColor=none;align=center;verticalAlign=middle;whiteSpace=wrap;rounded=0;" vertex="1" parent="21ea969265ad0168-26">
          <mxGeometry y="26" width="150" height="84" as="geometry" />
        </mxCell>
        <mxCell id="lxfn-lX1NWJobP7DNgSF-3" value="" style="rounded=0;whiteSpace=wrap;html=1;" vertex="1" parent="1">
          <mxGeometry x="170" y="74" width="160" height="96" as="geometry" />
        </mxCell>
        <mxCell id="lxfn-lX1NWJobP7DNgSF-4" value="&lt;font style=&quot;font-size: 16px;&quot;&gt;Клиент&lt;/font&gt;" style="text;html=1;strokeColor=none;fillColor=none;align=center;verticalAlign=middle;whiteSpace=wrap;rounded=0;" vertex="1" parent="1">
          <mxGeometry x="220" y="107" width="60" height="30" as="geometry" />
        </mxCell>
        <mxCell id="lxfn-lX1NWJobP7DNgSF-8" value="" style="endArrow=classic;html=1;rounded=0;entryX=0.5;entryY=0;entryDx=0;entryDy=0;exitX=0.5;exitY=1;exitDx=0;exitDy=0;" edge="1" parent="1" source="lxfn-lX1NWJobP7DNgSF-3" target="21ea969265ad0168-14">
          <mxGeometry relative="1" as="geometry">
            <mxPoint x="190" y="210" as="sourcePoint" />
            <mxPoint x="290" y="210" as="targetPoint" />
          </mxGeometry>
        </mxCell>
        <mxCell id="lxfn-lX1NWJobP7DNgSF-9" value="Название заявки" style="edgeLabel;resizable=0;html=1;align=center;verticalAlign=middle;rotation=270;" connectable="0" vertex="1" parent="lxfn-lX1NWJobP7DNgSF-8">
          <mxGeometry relative="1" as="geometry" />
        </mxCell>
        <mxCell id="lxfn-lX1NWJobP7DNgSF-11" value="" style="endArrow=classic;html=1;rounded=0;exitX=0.25;exitY=1;exitDx=0;exitDy=0;entryX=0.25;entryY=0;entryDx=0;entryDy=0;" edge="1" parent="1" source="lxfn-lX1NWJobP7DNgSF-10" target="lxfn-lX1NWJobP7DNgSF-14">
          <mxGeometry relative="1" as="geometry">
            <mxPoint x="460" y="350" as="sourcePoint" />
            <mxPoint x="250" y="520" as="targetPoint" />
          </mxGeometry>
        </mxCell>
        <mxCell id="lxfn-lX1NWJobP7DNgSF-12" value="Запрос на получение заявки" style="edgeLabel;resizable=0;html=1;align=center;verticalAlign=middle;rotation=270;" connectable="0" vertex="1" parent="lxfn-lX1NWJobP7DNgSF-11">
          <mxGeometry relative="1" as="geometry">
            <mxPoint as="offset" />
          </mxGeometry>
        </mxCell>
        <mxCell id="lxfn-lX1NWJobP7DNgSF-13" value="" style="rounded=0;whiteSpace=wrap;html=1;" vertex="1" parent="1">
          <mxGeometry x="170" y="610" width="160" height="30" as="geometry" />
        </mxCell>
        <mxCell id="lxfn-lX1NWJobP7DNgSF-14" value="&lt;font style=&quot;font-size: 14px;&quot;&gt;База данных&amp;nbsp;&lt;/font&gt;" style="text;html=1;strokeColor=none;fillColor=none;align=center;verticalAlign=middle;whiteSpace=wrap;rounded=0;" vertex="1" parent="1">
          <mxGeometry x="170" y="610" width="160" height="30" as="geometry" />
        </mxCell>
        <mxCell id="lxfn-lX1NWJobP7DNgSF-15" value="" style="endArrow=classic;html=1;rounded=0;exitX=0.75;exitY=0;exitDx=0;exitDy=0;entryX=0.75;entryY=1;entryDx=0;entryDy=0;" edge="1" parent="1" source="lxfn-lX1NWJobP7DNgSF-14" target="lxfn-lX1NWJobP7DNgSF-10">
          <mxGeometry relative="1" as="geometry">
            <mxPoint x="460" y="340" as="sourcePoint" />
            <mxPoint x="560" y="340" as="targetPoint" />
            <Array as="points">
              <mxPoint x="290" y="460" />
            </Array>
          </mxGeometry>
        </mxCell>
        <mxCell id="lxfn-lX1NWJobP7DNgSF-16" value="Заявка клиента" style="edgeLabel;resizable=0;html=1;align=center;verticalAlign=middle;" connectable="0" vertex="1" parent="lxfn-lX1NWJobP7DNgSF-15">
          <mxGeometry relative="1" as="geometry" />
        </mxCell>
        <mxCell id="lxfn-lX1NWJobP7DNgSF-17" value="" style="rounded=0;whiteSpace=wrap;html=1;" vertex="1" parent="1">
          <mxGeometry x="-80" y="328" width="160" height="92" as="geometry" />
        </mxCell>
        <mxCell id="lxfn-lX1NWJobP7DNgSF-18" value="Эксперт" style="text;html=1;strokeColor=none;fillColor=none;align=center;verticalAlign=middle;whiteSpace=wrap;rounded=0;" vertex="1" parent="1">
          <mxGeometry x="-50" y="359" width="60" height="30" as="geometry" />
        </mxCell>
        <mxCell id="lxfn-lX1NWJobP7DNgSF-19" value="" style="endArrow=classic;html=1;rounded=0;" edge="1" parent="1">
          <mxGeometry relative="1" as="geometry">
            <mxPoint x="80" y="378" as="sourcePoint" />
            <mxPoint x="170" y="378" as="targetPoint" />
          </mxGeometry>
        </mxCell>
        <mxCell id="lxfn-lX1NWJobP7DNgSF-20" value="Label" style="edgeLabel;resizable=0;html=1;align=center;verticalAlign=middle;" connectable="0" vertex="1" parent="lxfn-lX1NWJobP7DNgSF-19">
          <mxGeometry relative="1" as="geometry" />
        </mxCell>
        <mxCell id="lxfn-lX1NWJobP7DNgSF-21" value="" style="endArrow=classic;html=1;rounded=0;exitX=1.007;exitY=0.586;exitDx=0;exitDy=0;exitPerimeter=0;entryX=0;entryY=0.75;entryDx=0;entryDy=0;" edge="1" parent="1" source="lxfn-lX1NWJobP7DNgSF-27" target="lxfn-lX1NWJobP7DNgSF-14">
          <mxGeometry relative="1" as="geometry">
            <mxPoint x="430" y="630" as="sourcePoint" />
            <mxPoint x="330" y="630" as="targetPoint" />
          </mxGeometry>
        </mxCell>
        <mxCell id="lxfn-lX1NWJobP7DNgSF-22" value="Label" style="edgeLabel;resizable=0;html=1;align=center;verticalAlign=middle;" connectable="0" vertex="1" parent="lxfn-lX1NWJobP7DNgSF-21">
          <mxGeometry relative="1" as="geometry" />
        </mxCell>
        <mxCell id="lxfn-lX1NWJobP7DNgSF-25" value="" style="endArrow=none;html=1;rounded=0;entryX=0.5;entryY=1;entryDx=0;entryDy=0;exitX=0.5;exitY=0;exitDx=0;exitDy=0;" edge="1" parent="1" source="21ea969265ad0168-26" target="lxfn-lX1NWJobP7DNgSF-17">
          <mxGeometry width="50" height="50" relative="1" as="geometry">
            <mxPoint x="450" y="630" as="sourcePoint" />
            <mxPoint x="480" y="470" as="targetPoint" />
          </mxGeometry>
        </mxCell>
        <mxCell id="lxfn-lX1NWJobP7DNgSF-30" value="" style="endArrow=classic;html=1;rounded=0;exitX=1.011;exitY=0.37;exitDx=0;exitDy=0;exitPerimeter=0;entryX=-0.003;entryY=0.377;entryDx=0;entryDy=0;entryPerimeter=0;" edge="1" parent="1" source="lxfn-lX1NWJobP7DNgSF-10" target="lxfn-lX1NWJobP7DNgSF-29">
          <mxGeometry relative="1" as="geometry">
            <mxPoint x="350" y="350" as="sourcePoint" />
            <mxPoint x="450" y="350" as="targetPoint" />
          </mxGeometry>
        </mxCell>
        <mxCell id="lxfn-lX1NWJobP7DNgSF-31" value="Заявка клиента" style="edgeLabel;resizable=0;html=1;align=center;verticalAlign=middle;" connectable="0" vertex="1" parent="lxfn-lX1NWJobP7DNgSF-30">
          <mxGeometry relative="1" as="geometry" />
        </mxCell>
        <mxCell id="lxfn-lX1NWJobP7DNgSF-32" value="" style="endArrow=classic;html=1;rounded=0;entryX=1;entryY=0.5;entryDx=0;entryDy=0;" edge="1" parent="1" target="lxfn-lX1NWJobP7DNgSF-3">
          <mxGeometry relative="1" as="geometry">
            <mxPoint x="560" y="120" as="sourcePoint" />
            <mxPoint x="450" y="350" as="targetPoint" />
          </mxGeometry>
        </mxCell>
        <mxCell id="lxfn-lX1NWJobP7DNgSF-33" value="Отправка результатов по заявке" style="edgeLabel;resizable=0;html=1;align=center;verticalAlign=middle;fontSize=13;" connectable="0" vertex="1" parent="lxfn-lX1NWJobP7DNgSF-32">
          <mxGeometry relative="1" as="geometry" />
        </mxCell>
        <mxCell id="lxfn-lX1NWJobP7DNgSF-36" value="" style="endArrow=none;html=1;rounded=0;entryX=0.5;entryY=0;entryDx=0;entryDy=0;" edge="1" parent="1" target="21ea969265ad0168-10">
          <mxGeometry width="50" height="50" relative="1" as="geometry">
            <mxPoint x="560" y="120" as="sourcePoint" />
            <mxPoint x="420" y="320" as="targetPoint" />
          </mxGeometry>
        </mxCell>
        <mxCell id="lxfn-lX1NWJobP7DNgSF-37" value="" style="endArrow=classic;html=1;rounded=0;entryX=0.75;entryY=1;entryDx=0;entryDy=0;exitX=0.75;exitY=0;exitDx=0;exitDy=0;" edge="1" parent="1" source="21ea969265ad0168-14" target="lxfn-lX1NWJobP7DNgSF-3">
          <mxGeometry relative="1" as="geometry">
            <mxPoint x="350" y="350" as="sourcePoint" />
            <mxPoint x="450" y="350" as="targetPoint" />
          </mxGeometry>
        </mxCell>
        <mxCell id="lxfn-lX1NWJobP7DNgSF-38" value="Одобрение заявки" style="edgeLabel;resizable=0;html=1;align=center;verticalAlign=middle;rotation=270;" connectable="0" vertex="1" parent="lxfn-lX1NWJobP7DNgSF-37">
          <mxGeometry relative="1" as="geometry" />
        </mxCell>
        <mxCell id="lxfn-lX1NWJobP7DNgSF-39" value="" style="endArrow=classic;html=1;rounded=0;exitX=0;exitY=0.75;exitDx=0;exitDy=0;entryX=1;entryY=0.75;entryDx=0;entryDy=0;" edge="1" parent="1" source="lxfn-lX1NWJobP7DNgSF-29" target="lxfn-lX1NWJobP7DNgSF-10">
          <mxGeometry relative="1" as="geometry">
            <mxPoint x="350" y="320" as="sourcePoint" />
            <mxPoint x="450" y="320" as="targetPoint" />
          </mxGeometry>
        </mxCell>
        <mxCell id="lxfn-lX1NWJobP7DNgSF-40" value="Запрос данных" style="edgeLabel;resizable=0;html=1;align=center;verticalAlign=middle;" connectable="0" vertex="1" parent="lxfn-lX1NWJobP7DNgSF-39">
          <mxGeometry relative="1" as="geometry" />
        </mxCell>
      </root>
    </mxGraphModel>
  </diagram>
</mxfile>
